<svg xmlns="http://www.w3.org/2000/svg" viewBox="0 0 1600 1000" width="1600" height="1000" role="img" aria-label="Urban Innovation Summit">
  <defs><radialGradient id="g0" cx="50%" cy="50%" r="50%">
        <stop offset="0%" stop-color="#00C4A7" stop-opacity="0.85"/>
        <stop offset="100%" stop-color="#00C4A7" stop-opacity="0"/>
      </radialGradient><radialGradient id="g1" cx="50%" cy="50%" r="50%">
        <stop offset="0%" stop-color="#1B4DFF" stop-opacity="0.73"/>
        <stop offset="100%" stop-color="#1B4DFF" stop-opacity="0"/>
      </radialGradient><radialGradient id="g2" cx="50%" cy="50%" r="50%">
        <stop offset="0%" stop-color="#00C4A7" stop-opacity="0.61"/>
        <stop offset="100%" stop-color="#00C4A7" stop-opacity="0"/>
      </radialGradient><radialGradient id="g3" cx="50%" cy="50%" r="50%">
        <stop offset="0%" stop-color="#1B4DFF" stop-opacity="0.49"/>
        <stop offset="100%" stop-color="#1B4DFF" stop-opacity="0"/>
      </radialGradient>
  <filter id="gr" x="0" y="0" width="100%" height="100%">
    <feTurbulence type="fractalNoise" baseFrequency="0.85" numOctaves="3" stitchTiles="stitch" result="n"/>
    <feColorMatrix type="saturate" values="0" in="n" result="ng"/>
    <feComponentTransfer in="ng" result="nt"><feFuncA type="linear" slope="0.1"/></feComponentTransfer>
    <feComposite operator="over" in="nt" in2="SourceGraphic"/>
  </filter>
    <linearGradient id="veil" x1="0" y1="0" x2="0" y2="1">
      <stop offset="30%" stop-color="#04140F" stop-opacity="0"/>
      <stop offset="100%" stop-color="#04140F" stop-opacity=".9"/>
    </linearGradient>
  </defs>
  <rect width="1600" height="1000" fill="#04140F"/>
  <g filter="url(#gr)"><circle cx="919" cy="408" r="833" fill="url(#g0)" opacity="0.59"/><circle cx="1020" cy="902" r="565" fill="url(#g1)" opacity="0.80"/><circle cx="1162" cy="613" r="590" fill="url(#g2)" opacity="0.64"/><circle cx="228" cy="927" r="668" fill="url(#g3)" opacity="0.57"/></g>
  <g><line x1="0" y1="0" x2="0" y2="1000" stroke="#fff" stroke-opacity=".05"/><line x1="100" y1="0" x2="100" y2="1000" stroke="#fff" stroke-opacity=".05"/><line x1="200" y1="0" x2="200" y2="1000" stroke="#fff" stroke-opacity=".05"/><line x1="300" y1="0" x2="300" y2="1000" stroke="#fff" stroke-opacity=".05"/><line x1="400" y1="0" x2="400" y2="1000" stroke="#fff" stroke-opacity=".05"/><line x1="500" y1="0" x2="500" y2="1000" stroke="#fff" stroke-opacity=".05"/><line x1="600" y1="0" x2="600" y2="1000" stroke="#fff" stroke-opacity=".05"/><line x1="700" y1="0" x2="700" y2="1000" stroke="#fff" stroke-opacity=".05"/><line x1="800" y1="0" x2="800" y2="1000" stroke="#fff" stroke-opacity=".05"/><line x1="900" y1="0" x2="900" y2="1000" stroke="#fff" stroke-opacity=".05"/><line x1="1000" y1="0" x2="1000" y2="1000" stroke="#fff" stroke-opacity=".05"/><line x1="1100" y1="0" x2="1100" y2="1000" stroke="#fff" stroke-opacity=".05"/><line x1="1200" y1="0" x2="1200" y2="1000" stroke="#fff" stroke-opacity=".05"/><line x1="1300" y1="0" x2="1300" y2="1000" stroke="#fff" stroke-opacity=".05"/><line x1="1400" y1="0" x2="1400" y2="1000" stroke="#fff" stroke-opacity=".05"/><line x1="1500" y1="0" x2="1500" y2="1000" stroke="#fff" stroke-opacity=".05"/><line x1="1600" y1="0" x2="1600" y2="1000" stroke="#fff" stroke-opacity=".05"/><line x1="0" y1="0" x2="1600" y2="0" stroke="#fff" stroke-opacity=".05"/><line x1="0" y1="100" x2="1600" y2="100" stroke="#fff" stroke-opacity=".05"/><line x1="0" y1="200" x2="1600" y2="200" stroke="#fff" stroke-opacity=".05"/><line x1="0" y1="300" x2="1600" y2="300" stroke="#fff" stroke-opacity=".05"/><line x1="0" y1="400" x2="1600" y2="400" stroke="#fff" stroke-opacity=".05"/><line x1="0" y1="500" x2="1600" y2="500" stroke="#fff" stroke-opacity=".05"/><line x1="0" y1="600" x2="1600" y2="600" stroke="#fff" stroke-opacity=".05"/><line x1="0" y1="700" x2="1600" y2="700" stroke="#fff" stroke-opacity=".05"/><line x1="0" y1="800" x2="1600" y2="800" stroke="#fff" stroke-opacity=".05"/><line x1="0" y1="900" x2="1600" y2="900" stroke="#fff" stroke-opacity=".05"/><line x1="0" y1="1000" x2="1600" y2="1000" stroke="#fff" stroke-opacity=".05"/></g>
  <g><circle cx="1248" cy="280" r="186" fill="none" stroke="#fff" stroke-opacity="0.140" stroke-width="1.5"/><circle cx="1248" cy="280" r="302" fill="none" stroke="#fff" stroke-opacity="0.120" stroke-width="1.5"/><circle cx="1248" cy="280" r="451" fill="none" stroke="#fff" stroke-opacity="0.100" stroke-width="1.5"/><circle cx="1248" cy="280" r="569" fill="none" stroke="#fff" stroke-opacity="0.080" stroke-width="1.5"/><circle cx="1248" cy="280" r="720" fill="none" stroke="#fff" stroke-opacity="0.060" stroke-width="1.5"/></g>
  <rect width="1600" height="1000" fill="url(#veil)"/>
  <text x="64" y="884" font-family="ui-monospace,SFMono-Regular,Menlo,monospace" font-size="30" letter-spacing="6" fill="#fff" fill-opacity=".7">SMART CITIES</text>
  <text x="64" y="948" font-family="Georgia,'Times New Roman',serif" font-size="62" fill="#fff" fill-opacity=".96">Urban Innovation Summit</text>
</svg>
